<svg width="122" height="49" viewBox="0 0 122 49" fill="none" xmlns="http://www.w3.org/2000/svg">
<path d="M0 30.1648V0H17.9452V30.1501H0V30.1648ZM15.7709 23.147L16.2326 19.815L14.5646 19.6528L14.0583 22.2182C13.0158 22.7342 11.7351 22.9848 10.2012 22.9848C8.11628 22.9848 6.46323 22.3361 5.25696 21.024C4.0358 19.7118 3.4401 17.9868 3.4401 15.8343C3.4401 13.7408 4.0358 12.0158 5.21228 10.6594C6.38877 9.30303 7.9376 8.62484 9.8587 8.62484C10.8416 8.62484 11.6755 8.74279 12.3457 8.96394C13.0158 9.18509 13.6264 9.47995 14.2072 9.86328L14.6987 12.3991L16.3964 12.237L15.9049 8.90496C15.1901 8.30049 14.3412 7.81396 13.3583 7.43063C12.3755 7.06205 11.1543 6.87039 9.70977 6.87039C7.99716 6.87039 6.52283 7.2832 5.28677 8.12357C4.05072 8.96394 3.08272 10.0697 2.39767 11.4408C1.71263 12.8267 1.37011 14.3158 1.37011 15.908C1.37011 18.4291 2.15939 20.5374 3.73797 22.2182C5.31654 23.8989 7.37166 24.7393 9.91824 24.7393C12.4201 24.7393 14.3711 24.2085 15.7709 23.147Z" fill="#FF6D6D"/>
<path d="M24.0361 30.1648V0H31.7503V30.1501H24.0361V30.1648ZM24.8552 24.4739H30.9461V22.9553H28.8463V6.11848H24.8254V7.63704H26.955V22.9553H24.8552V24.4739Z" fill="#FF6D6D"/>
<path d="M37.8418 30.1648V0H51.3937V30.1501H37.8418V30.1648ZM40.299 13.5049L39.8672 16.2471L41.4308 16.4388L41.8925 14.3895C42.5626 14.0651 43.3221 13.9029 44.2157 13.9029C45.2879 13.9029 46.0177 14.1683 46.39 14.6991C46.7623 15.2298 46.941 15.9228 46.941 16.7779V17.8394C46.6133 17.8099 46.2708 17.7804 45.8985 17.7657C45.5262 17.751 45.1688 17.7362 44.8114 17.7362C43.4711 17.7362 42.1903 17.9721 40.9989 18.4439C39.8076 18.9157 39.2119 19.9035 39.2119 21.3926C39.2119 22.6605 39.614 23.5303 40.4331 24.0021C41.2522 24.4886 42.0563 24.7245 42.8456 24.7245C43.8136 24.7245 44.6475 24.4739 45.3326 23.9726C46.0176 23.4714 46.5538 22.9111 46.941 22.2624V22.3214C46.9708 23.9284 47.7005 24.7245 49.1301 24.7245C49.6812 24.7245 50.2024 24.5919 50.6938 24.3265L50.664 23.1028C50.4258 23.206 50.1577 23.265 49.8598 23.265C49.1748 23.265 48.8323 22.8374 48.8323 21.9823V16.3356C48.8323 13.6818 47.4026 12.3549 44.5433 12.3549C43.754 12.3549 43.0094 12.4434 42.3095 12.6203C41.5946 12.8119 40.9245 13.1068 40.299 13.5049ZM46.9261 20.0214C46.8516 20.9945 46.4495 21.7759 45.7198 22.3361C44.9901 22.9111 44.2157 23.1912 43.3817 23.1912C42.8605 23.1912 42.3542 23.0438 41.8776 22.7637C41.3862 22.4836 41.1479 21.9528 41.1479 21.1861C41.1479 20.2573 41.5202 19.6676 42.235 19.3875C42.9647 19.1073 43.7689 18.9746 44.6773 18.9746C45.0794 18.9746 45.4666 18.9894 45.8389 19.0336C46.2112 19.0631 46.5835 19.0926 46.9112 19.1073V20.0214H46.9261Z" fill="#FF6D6D"/>
<path d="M57.499 30.1648V0H69.8149V30.1501H57.499V30.1648ZM68.5193 21.0387C68.5193 20.0951 68.2661 19.4022 67.7598 18.9452C67.2534 18.4881 66.6428 18.1785 65.8982 18.0016C65.1536 17.8247 64.4239 17.6772 63.6942 17.5593C62.9645 17.4413 62.339 17.2497 61.8327 16.999C61.3263 16.7484 61.0732 16.3061 61.0732 15.6721C61.0732 15.0677 61.3114 14.6254 61.8029 14.3305C62.2943 14.0356 62.9049 13.9029 63.6644 13.9029C64.543 13.9029 65.3621 14.0946 66.1216 14.4927L66.4195 16.4093L67.9832 16.2176L67.6853 13.4459C67.179 13.1363 66.5684 12.8857 65.8387 12.6793C65.109 12.4728 64.3346 12.3549 63.5006 12.3549C62.3986 12.3549 61.3859 12.6203 60.4477 13.1363C59.5095 13.6523 59.0478 14.5369 59.0478 15.8048C59.0478 16.7337 59.301 17.4119 59.8073 17.8394C60.3136 18.2817 60.9391 18.5766 61.6986 18.7535C62.4581 18.9304 63.2027 19.0779 63.9473 19.2105C64.692 19.3285 65.3174 19.5349 65.8238 19.8003C66.3301 20.0657 66.5833 20.5227 66.5833 21.1861C66.5833 21.8643 66.2556 22.3656 65.6004 22.69C64.9451 23.0143 64.2005 23.1765 63.3517 23.1765C62.3986 23.1765 61.505 22.9848 60.6859 22.5868L60.7604 21.0092L59.2563 20.8471L58.884 23.5451C59.4052 23.8842 60.0903 24.1643 60.9242 24.3854C61.7582 24.6066 62.5922 24.7245 63.441 24.7245C64.8856 24.7245 66.0919 24.4002 67.0599 23.7367C68.0279 23.1028 68.5193 22.1887 68.5193 21.0387Z" fill="#FF6D6D"/>
<path d="M75.9053 30.1648V0H88.2211V30.1501H75.9053V30.1648ZM86.9255 21.0387C86.9255 20.0951 86.6723 19.4022 86.166 18.9452C85.6596 18.4881 85.049 18.1785 84.3044 18.0016C83.5598 17.8247 82.8301 17.6772 82.1004 17.5593C81.3707 17.4413 80.7452 17.2497 80.2389 16.999C79.7325 16.7484 79.4794 16.3061 79.4794 15.6721C79.4794 15.0677 79.7176 14.6254 80.2091 14.3305C80.7005 14.0356 81.3111 13.9029 82.0706 13.9029C82.9492 13.9029 83.7683 14.0946 84.5278 14.4927L84.8257 16.4093L86.3894 16.2176L86.0915 13.4459C85.5852 13.1363 84.9746 12.8857 84.2449 12.6793C83.5152 12.4728 82.7408 12.3549 81.9068 12.3549C80.8048 12.3549 79.7921 12.6203 78.8539 13.1363C77.9157 13.6523 77.454 14.5369 77.454 15.8048C77.454 16.7337 77.7072 17.4119 78.2136 17.8394C78.7199 18.2817 79.3454 18.5766 80.1049 18.7535C80.8644 18.9304 81.6089 19.0779 82.3535 19.2105C83.0982 19.3285 83.7236 19.5349 84.23 19.8003C84.7363 20.0657 84.9895 20.5227 84.9895 21.1861C84.9895 21.8643 84.6619 22.3656 84.0067 22.69C83.3514 23.0143 82.6068 23.1765 81.7579 23.1765C80.8048 23.1765 79.9112 22.9848 79.0921 22.5868L79.1667 21.0092L77.6625 20.8471L77.2902 23.5451C77.8115 23.8842 78.4965 24.1643 79.3305 24.3854C80.1644 24.6066 80.9984 24.7245 81.8473 24.7245C83.2918 24.7245 84.4981 24.4002 85.4661 23.7367C86.4341 23.1028 86.9255 22.1887 86.9255 21.0387Z" fill="#FF6D6D"/>
<path d="M94.3125 30.1648V0H102.429V30.1501H94.3125V30.1648ZM95.5039 24.4739H101.595V22.9553H99.495V12.6055H95.4592V14.1241H97.6185V22.9553H95.5188V24.4739H95.5039ZM97.4101 7.10628V9.53893H99.4652V7.10628H97.4101Z" fill="#FF6D6D"/>
<path d="M108.52 30.1648V0H121.491V30.1501H108.52V30.1648ZM120.329 20.4785L118.706 20.1246C118.348 22.1297 117.261 23.1323 115.474 23.1323C114.283 23.1323 113.374 22.7342 112.749 21.9381C112.123 21.1419 111.811 20.0214 111.811 18.6061C111.811 17.3234 112.094 16.2324 112.645 15.3183C113.196 14.4042 114.119 13.9619 115.4 13.9619C116.383 13.9619 117.246 14.1831 117.961 14.6254L118.423 16.6305L119.987 16.4388L119.525 13.5786C118.914 13.1216 118.274 12.7972 117.604 12.6203C116.934 12.4434 116.204 12.3549 115.415 12.3549C113.553 12.3549 112.138 13.0036 111.215 14.301C110.277 15.5984 109.815 17.0728 109.815 18.7093C109.815 20.6112 110.307 22.1002 111.304 23.147C112.287 24.2085 113.613 24.7393 115.266 24.7393C116.919 24.7393 118.14 24.2822 118.914 23.3829C119.689 22.4688 120.165 21.5105 120.329 20.4785Z" fill="#FF6D6D"/>
<path d="M7.75868 46.6337C7.41616 47.2529 6.9098 47.7394 6.25455 48.0785C5.5844 48.4176 4.7951 48.5945 3.87178 48.5945H1.20605V40.2793H3.87178C4.7951 40.2793 5.59929 40.4415 6.25455 40.7806C6.9098 41.1197 7.41616 41.5915 7.75868 42.2254C8.1012 42.8594 8.26501 43.5818 8.26501 44.4369C8.26501 45.2773 8.1012 46.0144 7.75868 46.6337ZM6.28431 46.7958C6.86511 46.2356 7.14809 45.4542 7.14809 44.4369C7.14809 43.4196 6.86511 42.6382 6.28431 42.078C5.70352 41.5177 4.86955 41.2376 3.76752 41.2376H2.26344V47.6362H3.76752C4.86955 47.6362 5.70352 47.3561 6.28431 46.7958Z" fill="#FF6D6D"/>
<path d="M13.7903 41.1492V43.9946H16.9772V44.8202H13.7903V47.7247H17.3346V48.5945H12.7031V40.2793H17.3346V41.1492H13.7903Z" fill="#FF6D6D"/>
<path d="M26.746 47.5326C26.5524 47.8717 26.2694 48.1518 25.8822 48.3582C25.495 48.5646 25.0184 48.6826 24.4376 48.6826C23.8866 48.6826 23.3803 48.5794 22.9484 48.3877C22.5165 48.1813 22.1741 47.9159 21.906 47.5621C21.6528 47.2082 21.5039 46.8102 21.4592 46.3679H22.6208C22.6506 46.6038 22.725 46.8397 22.8591 47.0608C22.9931 47.282 23.2016 47.4736 23.4548 47.6211C23.7079 47.7685 24.0207 47.8422 24.393 47.8422C24.8695 47.8422 25.2419 47.7243 25.495 47.4589C25.7482 47.1935 25.8822 46.8839 25.8822 46.4858C25.8822 46.1467 25.7929 45.8666 25.6141 45.6602C25.4354 45.4538 25.2121 45.2769 24.9589 45.1589C24.7057 45.041 24.3334 44.9083 23.8866 44.7609C23.3505 44.5839 22.9336 44.4218 22.6059 44.2743C22.2783 44.1269 22.0102 43.891 21.7868 43.5814C21.5634 43.2718 21.4443 42.8737 21.4443 42.3724C21.4443 41.9449 21.5486 41.5616 21.7571 41.2225C21.9656 40.8981 22.2634 40.6327 22.6655 40.4558C23.0527 40.2789 23.5292 40.1904 24.0505 40.1904C24.8696 40.1904 25.5397 40.3821 26.0162 40.7802C26.5077 41.1782 26.7757 41.6795 26.8651 42.2987H25.7035C25.6439 41.9744 25.4652 41.6795 25.1972 41.4289C24.9142 41.1782 24.5419 41.0455 24.0653 41.0455C23.6335 41.0455 23.2761 41.1635 23.0229 41.3846C22.7548 41.6058 22.6357 41.9301 22.6357 42.3282C22.6357 42.6526 22.7251 42.9179 22.8889 43.1096C23.0676 43.316 23.2761 43.4634 23.5292 43.5814C23.7824 43.6993 24.1398 43.8173 24.5717 43.9647C25.1078 44.1416 25.5397 44.3038 25.8822 44.466C26.2098 44.6282 26.4928 44.8641 26.7162 45.1737C26.9395 45.4833 27.0587 45.9108 27.0587 46.4416C27.0289 46.8249 26.9396 47.1935 26.746 47.5326Z" fill="#FF6D6D"/>
<path d="M32.5539 40.2793V48.5945H31.4668V40.2793H32.5539Z" fill="#FF6D6D"/>
<path d="M43.5446 40.9128C44.2147 41.3994 44.6615 42.0481 44.8849 42.8737H43.7382C43.5446 42.3724 43.202 41.9596 42.7404 41.6647C42.2787 41.3551 41.7277 41.2077 41.0874 41.2077C40.5214 41.2077 40.0002 41.3404 39.5534 41.6058C39.1066 41.8711 38.7493 42.2397 38.4812 42.7263C38.228 43.2128 38.094 43.7878 38.094 44.4512C38.094 45.1294 38.228 45.7192 38.4812 46.2057C38.7344 46.6922 39.1067 47.0755 39.5683 47.3409C40.03 47.6063 40.5661 47.739 41.1767 47.739C41.6979 47.739 42.1596 47.621 42.5914 47.4146C43.0233 47.1935 43.3658 46.8691 43.6488 46.4563C43.9317 46.0435 44.0807 45.5422 44.1402 44.982H40.8342V44.1858H45.0486V45.1737C44.9742 45.8371 44.7657 46.4268 44.4232 46.9723C44.0807 47.5178 43.619 47.9307 43.0382 48.2403C42.4574 48.5499 41.8022 48.712 41.0575 48.712C40.2534 48.712 39.5385 48.5351 38.9131 48.1813C38.2876 47.8275 37.811 47.3262 37.4685 46.6775C37.126 46.0435 36.9473 45.3063 36.9473 44.4807C36.9473 43.6551 37.126 42.9179 37.4685 42.284C37.811 41.65 38.3025 41.134 38.9131 40.7801C39.5236 40.4263 40.2385 40.2346 41.0426 40.2346C42.0553 40.2052 42.8744 40.4411 43.5446 40.9128Z" fill="#FF6D6D"/>
<path d="M56.0386 48.5945H54.9515L50.5881 42.019V48.5945H49.501V40.2793H50.5881L54.9515 46.8548V40.2793H56.0386V48.5945Z" fill="#FF6D6D"/>
<path d="M71.7059 47.5326C71.5123 47.8717 71.2294 48.1518 70.8422 48.3582C70.455 48.5646 69.9784 48.6826 69.3977 48.6826C68.8466 48.6826 68.3403 48.5794 67.9084 48.3877C67.4766 48.1813 67.134 47.9159 66.866 47.5621C66.6128 47.2082 66.4639 46.8102 66.4192 46.3679H67.5808C67.6105 46.6038 67.685 46.8397 67.8191 47.0608C67.9531 47.282 68.1615 47.4736 68.4147 47.6211C68.6679 47.7685 68.9806 47.8422 69.3529 47.8422C69.8295 47.8422 70.2018 47.7243 70.4549 47.4589C70.7081 47.1935 70.8422 46.8839 70.8422 46.4858C70.8422 46.1467 70.7528 45.8666 70.5741 45.6602C70.3954 45.4538 70.172 45.2769 69.9188 45.1589C69.6657 45.041 69.2934 44.9083 68.8466 44.7609C68.3105 44.5839 67.8935 44.4218 67.5658 44.2743C67.2382 44.1269 66.9702 43.891 66.7468 43.5814C66.5234 43.2718 66.4043 42.8737 66.4043 42.3724C66.4043 41.9449 66.5085 41.5616 66.717 41.2225C66.9255 40.8981 67.2234 40.6327 67.6255 40.4558C68.0127 40.2789 68.4892 40.1904 69.0104 40.1904C69.8295 40.1904 70.4997 40.3821 70.9762 40.7802C71.4677 41.1782 71.7357 41.6795 71.8251 42.2987H70.6635C70.6039 41.9744 70.4251 41.6795 70.1571 41.4289C69.8741 41.1782 69.5019 41.0455 69.0253 41.0455C68.5935 41.0455 68.236 41.1635 67.9829 41.3846C67.7148 41.6058 67.5957 41.9301 67.5957 42.3282C67.5957 42.6526 67.685 42.9179 67.8488 43.1096C68.0275 43.316 68.236 43.4634 68.4892 43.5814C68.7423 43.6993 69.0998 43.8173 69.5316 43.9647C70.0678 44.1416 70.4996 44.3038 70.8422 44.466C71.1698 44.6282 71.4527 44.8641 71.6761 45.1737C71.8995 45.4833 72.0186 45.9108 72.0186 46.4416C71.9888 46.8249 71.8995 47.1935 71.7059 47.5326Z" fill="#FF6D6D"/>
<path d="M81.579 40.2793V41.1492H79.2111V48.5945H78.1091V41.1492H75.7412V40.2793H81.579Z" fill="#FF6D6D"/>
<path d="M86.6432 40.2793V45.2625C86.6432 46.0734 86.8219 46.6779 87.1942 47.076C87.5665 47.4593 88.058 47.6657 88.7133 47.6657C89.3536 47.6657 89.8451 47.474 90.2025 47.076C90.5599 46.6779 90.7386 46.0882 90.7386 45.2773V40.294H91.8258V45.2773C91.8258 46.4125 91.5428 47.2676 90.9769 47.8279C90.411 48.4029 89.6515 48.683 88.6984 48.683C87.7602 48.683 87.0007 48.4029 86.4348 47.8279C85.8689 47.2529 85.5859 46.4125 85.5859 45.2773V40.294H86.6432V40.2793Z" fill="#FF6D6D"/>
<path d="M103.039 46.6337C102.696 47.2529 102.19 47.7394 101.535 48.0785C100.865 48.4176 100.075 48.5945 99.152 48.5945H96.4863V40.2793H99.152C100.075 40.2793 100.879 40.4415 101.535 40.7806C102.19 41.1197 102.696 41.5915 103.039 42.2254C103.381 42.8594 103.545 43.5818 103.545 44.4369C103.545 45.2773 103.381 46.0144 103.039 46.6337ZM101.579 46.7958C102.16 46.2356 102.443 45.4542 102.443 44.4369C102.443 43.4196 102.16 42.6382 101.579 42.078C100.999 41.5177 100.165 41.2376 99.0627 41.2376H97.5585V47.6362H99.0627C100.15 47.6362 100.999 47.3561 101.579 46.7958Z" fill="#FF6D6D"/>
<path d="M109.085 40.2793V48.5945H107.998V40.2793H109.085Z" fill="#FF6D6D"/>
<path d="M119.748 40.7213C120.373 41.0899 120.865 41.5911 121.222 42.2398C121.579 42.8885 121.758 43.6257 121.758 44.4366C121.758 45.2475 121.579 45.9846 121.222 46.6334C120.865 47.2821 120.373 47.7833 119.748 48.1519C119.122 48.5205 118.422 48.6974 117.648 48.6974C116.873 48.6974 116.159 48.5205 115.533 48.1519C114.908 47.7833 114.401 47.2821 114.044 46.6334C113.686 45.9846 113.508 45.2475 113.508 44.4366C113.508 43.6257 113.686 42.8885 114.044 42.2398C114.401 41.5911 114.893 41.0899 115.533 40.7213C116.174 40.3527 116.873 40.1758 117.648 40.1758C118.422 40.1758 119.122 40.3527 119.748 40.7213ZM116.084 41.5764C115.622 41.8418 115.265 42.2104 115.012 42.7116C114.759 43.1982 114.625 43.7732 114.625 44.4366C114.625 45.0853 114.759 45.6603 115.012 46.1616C115.265 46.6628 115.622 47.0314 116.084 47.2968C116.546 47.5622 117.052 47.6949 117.633 47.6949C118.199 47.6949 118.72 47.5622 119.182 47.2968C119.643 47.0314 120.001 46.6481 120.254 46.1616C120.507 45.675 120.641 45.1 120.641 44.4513C120.641 43.7879 120.507 43.2129 120.254 42.7264C120.001 42.2398 119.643 41.8565 119.182 41.5911C118.72 41.3258 118.214 41.1931 117.633 41.1931C117.067 41.1783 116.546 41.311 116.084 41.5764Z" fill="#FF6D6D"/>
</svg>
