<svg width="107" height="106" viewBox="0 0 107 106" fill="none" xmlns="http://www.w3.org/2000/svg">
<g style="mix-blend-mode:multiply">
<path d="M53.3733 104.943C82.4396 104.943 106.002 81.6158 106.002 52.8402C106.002 24.0646 82.4396 0.737305 53.3733 0.737305C24.307 0.737305 0.744141 24.0646 0.744141 52.8402C0.744141 81.6158 24.307 104.943 53.3733 104.943Z" fill="white"/>
<path d="M53.3738 105.68C23.9467 105.68 0 81.9728 0 52.84C0 23.7073 23.9467 0 53.3738 0C82.8008 0 106.748 23.7073 106.748 52.84C106.748 81.9728 82.8008 105.68 53.3738 105.68ZM53.3738 1.47433C24.7658 1.47433 1.48922 24.5181 1.48922 52.84C1.48922 81.162 24.7658 104.206 53.3738 104.206C81.9818 104.206 105.258 81.162 105.258 52.84C105.258 24.5181 81.9818 1.47433 53.3738 1.47433Z" fill="#FF6D6D"/>
<path d="M60.8797 6.02976C61.2371 6.05924 61.5499 6.07398 61.803 6.07398L61.7733 6.30988C61.3563 6.36885 60.9989 6.67846 60.7159 7.26819L57.1716 14.286L57.0673 14.2713L56.978 14.2565L54.7292 6.42782C54.5803 5.91181 54.3271 5.63169 53.9697 5.58746L53.9995 5.35156C54.3271 5.41054 54.759 5.45477 55.2951 5.51374C55.9951 5.57271 56.5163 5.61694 56.8588 5.61694L56.829 5.85284C56.5163 5.83809 56.2929 5.85284 56.1589 5.89707C56.0249 5.9413 55.9504 6.05924 55.9355 6.20667C55.9206 6.33936 55.9504 6.53103 56.0249 6.78166L57.6779 12.7675L60.1351 7.87267C60.3436 7.4746 60.4478 7.15025 60.4776 6.91435C60.5074 6.66372 60.433 6.47205 60.2691 6.33936C60.1053 6.20667 59.8373 6.13296 59.4799 6.08873L59.5096 5.85284C59.9415 5.92655 60.4032 5.98553 60.8797 6.02976Z" fill="#FF6D6D"/>
<path d="M70.8873 9.14065C70.7384 9.14065 70.6193 9.19962 70.5299 9.31757C70.4406 9.43551 70.3363 9.62718 70.2321 9.9073L68.1025 15.5098C67.9982 15.7899 67.9387 16.011 67.9387 16.1585C67.9387 16.3059 67.9833 16.4238 68.0876 16.5123C68.1918 16.6008 68.3854 16.704 68.6535 16.8219L68.5641 17.0431C68.2216 16.8956 67.7451 16.704 67.1345 16.4681C66.4792 16.2174 65.9878 16.0553 65.6602 15.9521L65.7495 15.7309C66.0325 15.8194 66.241 15.8636 66.375 15.8636C66.509 15.8636 66.643 15.8046 66.7324 15.6867C66.8218 15.5687 66.926 15.3771 67.0302 15.0969L69.1598 9.49449C69.2641 9.21436 69.3236 8.99321 69.3236 8.84578C69.3236 8.69835 69.279 8.5804 69.1747 8.49194C69.0705 8.40348 68.8769 8.30028 68.6088 8.18233L68.6982 7.96118C69.0109 8.09387 69.4875 8.28553 70.1427 8.53617C70.7533 8.77206 71.2447 8.93424 71.6022 9.03744L71.5128 9.25859C71.2447 9.17013 71.0363 9.1259 70.8873 9.14065Z" fill="#FF6D6D"/>
<path d="M84.1409 16.9398C83.9919 16.9104 83.843 16.9546 83.709 17.043C83.575 17.1315 83.4111 17.3084 83.2324 17.5591L78.9137 23.3532L78.6903 23.191L79.2711 13.8732L75.4438 19.0039C75.2651 19.2545 75.146 19.4609 75.0864 19.6231C75.0268 19.7853 75.0566 19.9327 75.1311 20.0802C75.2055 20.2276 75.3842 20.3898 75.6374 20.5962L75.4885 20.7878C75.2651 20.5962 74.9375 20.3455 74.5056 20.0212C74.1184 19.7411 73.8057 19.5199 73.5674 19.3872L73.7163 19.1956C73.9546 19.3577 74.1482 19.4462 74.2971 19.4609C74.446 19.4904 74.5949 19.4462 74.729 19.3577C74.863 19.2545 75.0268 19.0924 75.2055 18.8417L78.7201 14.1239C78.8988 13.8732 79.0179 13.6816 79.0626 13.5489C79.1073 13.4162 79.0924 13.2835 79.0179 13.1656C78.9435 13.0476 78.7946 12.9002 78.5563 12.7085L78.7052 12.5168C78.8988 12.6938 79.1966 12.9297 79.5987 13.2098C79.8966 13.4309 80.1497 13.6079 80.388 13.7405L79.9115 21.5545L83.0091 17.3969C83.1878 17.1462 83.3218 16.9398 83.3665 16.7777C83.4111 16.6155 83.3963 16.4681 83.3218 16.3206C83.2473 16.1732 83.0686 15.9963 82.8155 15.8046L82.9644 15.6129C83.1878 15.8046 83.5154 16.0552 83.9473 16.3796C84.3345 16.6597 84.6472 16.8809 84.8855 17.0136L84.7366 17.2052C84.4834 17.0578 84.2898 16.9546 84.1409 16.9398Z" fill="#FF6D6D"/>
<path d="M89.1303 23.5893C89.5175 23.3091 89.9195 22.9995 90.3514 22.6162C90.7237 23.1765 91.379 24.1053 92.3172 25.4174C93.2554 26.7149 93.9256 27.6289 94.3277 28.1597C93.8213 28.4546 93.3894 28.7199 93.0022 28.9853C92.6746 29.2212 92.4066 29.4276 92.213 29.5898L92.0491 29.3686C92.5257 28.9558 92.8533 28.6167 93.0469 28.3661C93.2405 28.1155 93.315 27.8501 93.3001 27.57C93.2852 27.2898 93.1065 26.9507 92.8235 26.5379L92.4363 26.0072L86.7922 29.9879C86.5241 30.1795 86.3305 30.3565 86.2412 30.4891C86.1518 30.6218 86.122 30.784 86.1816 30.9609C86.2263 31.1231 86.3603 31.359 86.5539 31.6539L86.3603 31.8013C86.1369 31.4475 85.7944 30.9462 85.3476 30.3417C84.8711 29.6783 84.5137 29.2065 84.2754 28.9116L84.469 28.7642C84.6924 29.0443 84.8711 29.236 85.02 29.3392C85.1689 29.4424 85.3178 29.4719 85.4817 29.4276C85.6455 29.3834 85.8689 29.2654 86.1369 29.0738L91.7811 25.0931L91.3939 24.5623C91.096 24.1495 90.828 23.8989 90.5748 23.7809C90.3216 23.663 90.0387 23.6482 89.7408 23.7514C89.443 23.8547 89.0111 24.0463 88.4601 24.3559L88.2963 24.1348C88.5197 24.0168 88.7877 23.8399 89.1303 23.5893Z" fill="#FF6D6D"/>
<path d="M91.9897 44.0532L91.7514 44.1269C91.6621 43.8026 91.5429 43.3898 91.3642 42.8885C91.1408 42.2398 90.9621 41.7532 90.8281 41.4289L91.0664 41.3552C91.1706 41.6353 91.2897 41.8417 91.3791 41.9449C91.4833 42.0481 91.6174 42.0776 91.7663 42.0186C91.9003 41.9744 92.0641 41.8712 92.2577 41.709L93.9108 40.3674L92.9726 37.6104L91.5876 37.5514C91.1408 37.5219 90.7983 37.5514 90.56 37.6399C90.3218 37.7283 90.1728 37.861 90.1133 38.0527C90.0686 38.2443 90.0984 38.5245 90.2026 38.8636L89.9643 38.9373C89.8452 38.495 89.6963 38.0527 89.5474 37.6104C89.4282 37.2713 89.324 36.9912 89.2197 36.77L89.458 36.6963C89.6665 37.0501 90.1133 37.2418 90.7685 37.2565L98.6912 37.6104L98.7508 37.7873L92.4365 42.9917C92.0493 43.3603 91.9003 43.6994 91.9897 44.0532ZM97.1573 37.7873L93.2555 37.6251L94.1342 40.2199L97.1573 37.7873Z" fill="#FF6D6D"/>
<path d="M93.0766 55.3311C93.2255 55.2721 93.3 55.1984 93.3 55.0952C93.3 55.0363 93.2851 54.992 93.2553 54.9478C93.2255 54.9036 93.166 54.8151 93.0766 54.6972C92.8532 54.417 92.6894 54.1222 92.5703 53.8273C92.4511 53.5324 92.3916 53.1933 92.3916 52.8248C92.3767 51.9991 92.5405 51.2915 92.8681 50.687C93.2106 50.0825 93.6872 49.6255 94.3424 49.3011C94.9828 48.9768 95.7572 48.8146 96.6656 48.7998C97.6038 48.7851 98.4229 48.9325 99.1228 49.2569C99.8228 49.5812 100.374 50.0235 100.761 50.6133C101.148 51.203 101.357 51.8664 101.357 52.6036C101.357 52.928 101.327 53.2228 101.267 53.4735C101.208 53.7241 101.118 53.9453 101.014 54.1369C100.91 54.3286 100.776 54.5497 100.597 54.7856C100.523 54.8888 100.478 54.9773 100.478 55.0363C100.478 55.1837 100.731 55.2869 101.223 55.3311V55.6112C100.701 55.5818 99.7632 55.5818 98.4229 55.6112V55.3311C98.8548 55.2574 99.2122 55.1689 99.4952 55.0805C99.7781 54.992 100.016 54.8593 100.225 54.6972C100.508 54.4613 100.746 54.1517 100.91 53.7683C101.074 53.385 101.148 53.0017 101.148 52.5889C101.133 52.0581 100.955 51.6011 100.597 51.203C100.24 50.8049 99.7334 50.5101 99.0931 50.2889C98.4378 50.0825 97.6932 49.9793 96.8294 49.994C95.8465 50.0088 95.0573 50.1267 94.4318 50.3479C93.8063 50.569 93.3596 50.8934 93.0617 51.3209C92.7639 51.7485 92.6298 52.294 92.6447 52.9574C92.6596 53.444 92.7936 53.8568 93.0468 54.2106C93.1511 54.3581 93.2404 54.4465 93.3447 54.4908C93.434 54.535 93.568 54.5497 93.7319 54.5497L94.9083 54.535C95.2509 54.535 95.4891 54.4908 95.653 54.4318C95.8019 54.3728 95.921 54.2549 95.9657 54.0779C96.0253 53.9158 96.055 53.6504 96.055 53.2965H96.2933C96.2784 53.6946 96.2635 54.2549 96.2784 55.0068C96.2933 55.567 96.3082 55.9946 96.338 56.26H96.0997C96.0848 56.0683 96.0402 55.9356 95.9955 55.8619C95.9508 55.7882 95.8465 55.7292 95.7125 55.6997C95.5785 55.6702 95.3551 55.6555 95.0424 55.6702L92.6298 55.7145V55.4786C92.7639 55.4196 92.9277 55.3901 93.0766 55.3311Z" fill="#FF6D6D"/>
<path d="M91.3051 67.8781C90.8733 67.7454 90.3669 67.6127 89.7861 67.4947C89.9797 66.9787 90.2627 66.1089 90.6648 64.8704C91.1413 63.3961 91.4838 62.2756 91.6923 61.5237L91.9306 61.5974C91.8562 61.8775 91.8264 62.0839 91.8264 62.2314C91.8413 62.3788 91.9008 62.482 92.02 62.5705C92.1391 62.6589 92.3476 62.7474 92.6306 62.8358L98.3938 64.6345C98.6917 64.723 98.9002 64.7672 99.0491 64.7672C99.198 64.7672 99.3172 64.7082 99.4065 64.5903C99.4959 64.4723 99.5852 64.2807 99.6895 64.0153L99.9277 64.089C99.6597 64.8409 99.3023 65.9467 98.8257 67.421C98.4683 68.5415 98.2151 69.3524 98.096 69.8389C97.6046 69.6325 97.1578 69.4556 96.7408 69.3376C96.443 69.2492 96.1898 69.1755 96.0111 69.146L96.1004 68.8806C96.6217 68.9838 97.0238 69.028 97.2918 69.028C97.5599 69.028 97.7833 68.9396 97.962 68.7627C98.1407 68.6005 98.2896 68.3056 98.4236 67.9075L98.7215 66.9492C98.8108 66.6691 98.8555 66.4627 98.8406 66.33C98.8257 66.1973 98.781 66.0794 98.6619 65.9909C98.5428 65.9024 98.3492 65.814 98.0513 65.7255L95.3112 64.8704L95.0729 65.6371C94.9537 66.0204 94.9835 66.3153 95.1771 66.5217C95.3707 66.7281 95.5792 66.8755 95.8175 66.9787C96.0558 67.0819 96.2047 67.1556 96.2643 67.1851L96.1749 67.4505C95.8026 67.3031 95.4452 67.1704 95.0878 67.0672L94.5368 66.905C94.1496 66.787 93.5837 66.6249 92.8688 66.4627L92.9582 66.1973C93.0177 66.2121 93.2113 66.2415 93.539 66.3153C93.8666 66.3742 94.1496 66.3447 94.3729 66.2268C94.5963 66.1089 94.7452 65.8877 94.8495 65.5781L95.0878 64.8114L92.288 63.9416C91.9902 63.8531 91.7817 63.8089 91.6328 63.8089C91.4838 63.8089 91.3647 63.8679 91.2902 63.9858C91.2009 64.1038 91.1115 64.2954 91.0222 64.5755L90.7541 65.4159C90.6052 65.9024 90.5456 66.2858 90.6052 66.5659C90.6499 66.8608 90.7988 67.0967 91.052 67.3031C91.3051 67.4947 91.6923 67.7159 92.2136 67.9518L92.1242 68.2171C91.9455 68.0845 91.6626 67.996 91.3051 67.8781Z" fill="#FF6D6D"/>
<path d="M87.0597 85.9677C87.1192 85.8351 87.1043 85.7024 87.0448 85.5697C86.9852 85.437 86.8363 85.2748 86.6129 85.0537L82.2346 80.9108C82.0112 80.7044 81.8325 80.5717 81.6985 80.5127C81.5644 80.4537 81.4304 80.4537 81.2964 80.5127C81.1623 80.5717 80.9985 80.7044 80.79 80.9108L80.6113 80.7486C80.8943 80.498 81.2517 80.1294 81.7134 79.6723C82.1899 79.1711 82.5473 78.7877 82.7707 78.5371L82.9494 78.6993C82.7558 78.9204 82.6367 79.0974 82.5771 79.2153C82.5175 79.348 82.5324 79.4807 82.592 79.6134C82.6516 79.7461 82.8005 79.9082 83.0239 80.1294L87.4022 84.2723C87.6256 84.4787 87.8043 84.6114 87.9383 84.6703C88.0723 84.7293 88.2064 84.7293 88.3404 84.6703C88.4744 84.6114 88.6382 84.4787 88.8467 84.2723L89.0254 84.4344C88.7723 84.6556 88.4 85.0242 87.9234 85.5254C87.4618 85.9972 87.1192 86.3806 86.881 86.6607L86.7023 86.4985C86.881 86.2773 87.0001 86.1004 87.0597 85.9677Z" fill="#FF6D6D"/>
<path d="M74.6549 94.9617C74.7443 94.829 74.7592 94.6963 74.7294 94.5341C74.6996 94.372 74.5954 94.1655 74.4316 93.8854L70.7383 87.6785L70.9766 87.531L79.4056 91.7034L76.1442 86.2189C75.9804 85.9535 75.8463 85.7618 75.7123 85.6586C75.5783 85.5554 75.4293 85.5112 75.2655 85.526C75.1017 85.5407 74.8783 85.6292 74.5954 85.7766L74.4613 85.5702C74.7294 85.4522 75.0868 85.2458 75.5485 84.9805C75.9655 84.7298 76.2782 84.5382 76.5016 84.376L76.6207 84.5824C76.3824 84.7298 76.2186 84.8772 76.1442 85.0099C76.0548 85.1426 76.0399 85.2753 76.0697 85.4375C76.0995 85.5997 76.2037 85.8061 76.3675 86.0862L79.3758 91.1432C79.5247 91.4085 79.6587 91.5855 79.7779 91.6739C79.897 91.7624 80.0161 91.8066 80.1651 91.7771C80.2991 91.7476 80.5076 91.6739 80.7608 91.5412L80.8799 91.7476C80.6416 91.8656 80.314 92.0425 79.8821 92.2931C79.5694 92.4701 79.3013 92.647 79.0779 92.7944L72.0041 89.3002L74.6549 93.7527C74.8188 94.0181 74.9528 94.2098 75.0868 94.313C75.206 94.4162 75.3549 94.4604 75.5336 94.4457C75.7123 94.4309 75.9357 94.3425 76.2186 94.195L76.3378 94.4014C76.0697 94.5194 75.7123 94.7258 75.2506 94.9912C74.8336 95.2418 74.5209 95.4335 74.2975 95.5956L74.1784 95.3892C74.4018 95.2271 74.5656 95.0796 74.6549 94.9617Z" fill="#FF6D6D"/>
<path d="M66.4647 96.8924C66.5689 97.3495 66.703 97.8507 66.8817 98.3815C66.2115 98.4995 65.0946 98.7353 63.516 99.0597C61.9375 99.3988 60.8354 99.6494 60.1802 99.8116C60.1057 99.2366 60.0312 98.7353 59.927 98.2783C59.8376 97.8802 59.7632 97.5559 59.6738 97.32L59.9419 97.261C60.1355 97.8655 60.3142 98.293 60.478 98.5732C60.6418 98.8533 60.8503 99.0302 61.1184 99.1187C61.3864 99.2071 61.7736 99.1924 62.2651 99.0892L62.9054 98.9565L61.446 92.2483C61.3715 91.9239 61.2971 91.688 61.1928 91.5553C61.0886 91.4227 60.9695 91.3342 60.7907 91.3194C60.612 91.29 60.344 91.3195 59.9866 91.3784L59.9419 91.1425C60.3589 91.0836 60.9546 90.9656 61.6992 90.8034C62.4885 90.6265 63.0842 90.4938 63.4565 90.3906L63.5011 90.6265C63.1437 90.715 62.9054 90.8034 62.7565 90.8919C62.6076 90.9804 62.5182 91.113 62.4885 91.2752C62.4587 91.4374 62.4736 91.688 62.548 92.0124L64.0075 98.7206L64.6478 98.5879C65.1393 98.4847 65.4967 98.3373 65.7052 98.1456C65.9137 97.9539 66.0328 97.7033 66.0626 97.3937C66.0924 97.0841 66.0775 96.6123 66.003 95.9931L66.2711 95.9341C66.3158 96.17 66.3753 96.4944 66.4647 96.8924Z" fill="#FF6D6D"/>
<path d="M46.7024 92.7502C46.7471 92.2932 46.762 91.7771 46.762 91.2021C47.313 91.2759 48.2363 91.3643 49.5468 91.4823C51.0956 91.615 52.2721 91.7182 53.0763 91.7624L53.0614 91.9983C52.7635 91.9835 52.555 91.9983 52.421 92.0425C52.287 92.0867 52.1827 92.1605 52.1232 92.2932C52.0636 92.4258 52.0189 92.647 51.9891 92.9419L51.453 98.9129C51.4232 99.2078 51.4381 99.4289 51.4679 99.5764C51.4977 99.7238 51.587 99.827 51.7211 99.886C51.8551 99.9449 52.0636 100.004 52.3465 100.033L52.3316 100.269C51.5424 100.181 50.3659 100.063 48.8171 99.9302C47.6257 99.827 46.7768 99.768 46.2705 99.7385C46.3748 99.2225 46.4492 98.7507 46.479 98.3232C46.5088 98.0136 46.5237 97.7629 46.5088 97.5713L46.7917 97.6007C46.8066 98.1315 46.8364 98.5148 46.9109 98.7802C46.9704 99.0456 47.1045 99.2373 47.313 99.3699C47.5066 99.5026 47.8342 99.5911 48.2512 99.6206L49.2639 99.709C49.5617 99.7385 49.7702 99.7238 49.9042 99.6943C50.0382 99.6648 50.1425 99.5763 50.2021 99.4437C50.2616 99.311 50.3063 99.0898 50.3361 98.795L50.5893 95.9642L49.7851 95.8905C49.383 95.861 49.1 95.9495 48.9362 96.1854C48.7873 96.4213 48.6682 96.6572 48.6235 96.9078C48.5639 97.1585 48.5341 97.3206 48.5192 97.3943L48.2363 97.3649C48.2959 96.9668 48.3405 96.5982 48.3852 96.2296L48.4299 95.6546C48.4597 95.2418 48.4895 94.6816 48.5192 93.9444L48.8022 93.9739C48.8022 94.0329 48.8171 94.2245 48.8171 94.5636C48.832 94.9027 48.9064 95.1681 49.0851 95.345C49.249 95.5367 49.5021 95.6399 49.8298 95.6694L50.6339 95.7431L50.8871 92.8534C50.9169 92.5585 50.902 92.3374 50.8722 92.1899C50.8424 92.0573 50.7531 91.9541 50.619 91.8951C50.485 91.8361 50.2765 91.7919 49.9936 91.7624L49.1 91.6887C48.5937 91.6444 48.2065 91.6739 47.9235 91.7919C47.6555 91.8951 47.447 92.1015 47.2981 92.3816C47.1492 92.6617 47.03 93.0893 46.9109 93.6495L46.6279 93.6201C46.6279 93.3989 46.6577 93.104 46.7024 92.7502Z" fill="#FF6D6D"/>
<path d="M34.9825 87.2805C35.2058 87.2363 35.459 87.2805 35.7271 87.3984C36.0398 87.5311 36.2483 87.7228 36.3674 87.9734C36.4866 88.2388 36.5015 88.6074 36.427 89.0939L36.2036 90.3029C36.1292 90.7304 36.0845 91.0548 36.0696 91.3054C36.0547 91.5413 36.1143 91.7625 36.2185 91.9541C36.3228 92.1458 36.5164 92.2932 36.7993 92.4112L37.8716 92.8535L38.9587 90.2881C39.0778 90.008 39.1374 89.8016 39.1523 89.6542C39.1672 89.5067 39.1076 89.3888 39.0034 89.2856C38.8991 89.1824 38.7204 89.0792 38.4523 88.9612L38.5417 88.7401C38.8842 88.9023 39.3459 89.1087 39.9565 89.3593C40.5968 89.6247 41.0883 89.8163 41.4159 89.9196L41.3265 90.1407C41.0436 90.0375 40.8351 89.9933 40.7011 89.9785C40.5522 89.9785 40.433 90.0228 40.3437 90.1407C40.2394 90.2439 40.1352 90.4356 40.016 90.7157L37.6779 96.2444C37.5588 96.5246 37.4992 96.731 37.4844 96.8784C37.4695 97.0258 37.529 97.1438 37.6333 97.247C37.7375 97.3502 37.9162 97.4534 38.1843 97.5861L38.0949 97.8072C37.7822 97.6598 37.3354 97.4534 36.7397 97.2027C36.4419 97.0848 36.1292 96.9521 35.7717 96.8047C35.4143 96.6573 35.1761 96.5688 35.042 96.5098C34.4612 96.2592 33.9996 95.9791 33.657 95.64C33.3145 95.3009 33.1209 94.947 33.0316 94.5637C32.9422 94.1804 32.9869 93.8118 33.1507 93.4432C33.2698 93.1483 33.4634 92.883 33.7315 92.6471C33.9996 92.4112 34.3421 92.2343 34.7591 92.1458C35.1761 92.0573 35.6824 92.0721 36.2334 92.2048L36.0994 92.131C35.7866 91.9394 35.5484 91.7477 35.3994 91.5413C35.2505 91.3497 35.1463 91.1285 35.1165 90.8926C35.0718 90.6567 35.0867 90.3618 35.1463 90.008L35.3548 88.7548C35.3994 88.5042 35.4292 88.3125 35.4292 88.1651C35.4292 88.0177 35.4143 87.8997 35.3697 87.8113C35.325 87.7228 35.2505 87.6491 35.1463 87.6196C35.0271 87.5606 34.908 87.5606 34.8037 87.5901C34.6995 87.6196 34.5506 87.6933 34.357 87.7965L34.2378 87.6048C34.5059 87.4427 34.7591 87.3247 34.9825 87.2805ZM35.7271 92.5291C35.3697 92.5733 35.0867 92.706 34.8633 92.9272C34.6399 93.1483 34.4463 93.4432 34.2825 93.8265C34.0294 94.431 33.9698 94.9618 34.1336 95.3893C34.2974 95.8169 34.6995 96.1707 35.3697 96.4508C35.6079 96.554 35.7866 96.5983 35.9356 96.5835C36.0696 96.5835 36.1887 96.5246 36.293 96.4066C36.3972 96.2887 36.5015 96.097 36.6057 95.8316L37.7673 93.0894L37.0078 92.7798C36.5164 92.5733 36.0845 92.4849 35.7271 92.5291Z" fill="#FF6D6D"/>
<path d="M23.3662 89.2853C23.5002 89.3296 23.6343 89.3001 23.7534 89.2264C23.8725 89.1526 24.0363 88.9905 24.2299 88.7546L27.9679 84.0367C28.1615 83.8008 28.2806 83.6092 28.3253 83.4765C28.37 83.3438 28.3551 83.2111 28.2806 83.0931C28.2062 82.9752 28.0573 82.813 27.8339 82.6214L27.9828 82.4297C28.2657 82.6803 28.6529 83.0047 29.1742 83.4027C29.7252 83.8303 30.1422 84.1399 30.4251 84.3316L30.2762 84.5232C30.0379 84.3463 29.8443 84.2431 29.7103 84.2136C29.5763 84.1694 29.4422 84.1841 29.3231 84.2726C29.204 84.3463 29.0401 84.5085 28.8465 84.7444L25.1086 89.4623C24.915 89.6981 24.7959 89.8898 24.7512 90.0225C24.7065 90.1552 24.7214 90.2879 24.7958 90.4058C24.8703 90.5238 25.0192 90.6859 25.2426 90.8776L25.0937 91.0693C24.8405 90.8481 24.4384 90.5238 23.8874 90.0815C23.3662 89.6834 22.9492 89.3738 22.6514 89.1674L22.8003 88.9757C23.0535 89.1379 23.2322 89.2411 23.3662 89.2853Z" fill="#FF6D6D"/>
<path d="M13.7462 78.7881C13.6866 78.1246 13.8356 77.4612 14.1781 76.8272C14.5355 76.1785 15.0716 75.6035 15.8162 75.058C16.5459 74.542 17.2757 74.2029 18.0352 74.0702C18.7947 73.9375 19.4946 73.9818 20.1499 74.2324C20.8051 74.483 21.3561 74.9106 21.788 75.5151C22.2497 76.1343 22.5028 76.783 22.5624 77.4464C22.622 78.1099 22.4731 78.7733 22.1305 79.4073C21.7731 80.056 21.237 80.631 20.4924 81.1765C19.7627 81.6925 19.033 82.0316 18.2734 82.1643C17.5288 82.297 16.814 82.2528 16.1588 82.0021C15.5035 81.7515 14.9525 81.3239 14.5206 80.7342C14.0589 80.1002 13.8058 79.4515 13.7462 78.7881ZM15.98 81.4124C16.5013 81.5156 17.097 81.4714 17.7522 81.265C18.4075 81.0586 19.0627 80.7195 19.7478 80.2182C20.4328 79.7317 20.9689 79.2009 21.3412 78.6406C21.7284 78.0804 21.9369 77.5202 21.9667 76.9894C22.0114 76.4586 21.8774 75.9869 21.5944 75.5888C21.2817 75.176 20.8796 74.9106 20.3435 74.8074C19.8222 74.7042 19.2266 74.7484 18.5713 74.9548C17.916 75.1612 17.2608 75.5003 16.5757 75.9869C15.8907 76.4734 15.3546 77.0041 14.9823 77.5791C14.5951 78.1394 14.3866 78.6849 14.3419 79.2304C14.2972 79.7611 14.4313 80.2329 14.7142 80.631C15.0269 81.0438 15.4439 81.3092 15.98 81.4124Z" fill="#FF6D6D"/>
<path d="M14.8921 61.0374C15.0708 61.1701 15.2048 61.3913 15.2942 61.6861C15.3984 61.9957 15.3835 62.2906 15.2644 62.5412C15.1453 62.8066 14.8623 63.0573 14.4304 63.3079L13.3433 63.9124C12.971 64.1335 12.688 64.3105 12.4944 64.4579C12.3008 64.6053 12.1668 64.7822 12.0923 64.9886C12.0179 65.1951 12.0179 65.4309 12.1072 65.7258L12.4498 66.8316L15.1304 66.0059C15.4282 65.9175 15.6218 65.829 15.7409 65.7406C15.8601 65.6521 15.9197 65.5341 15.9345 65.4015C15.9494 65.2688 15.9048 65.0476 15.8303 64.7675L16.0686 64.6938C16.1579 65.0476 16.292 65.5489 16.5004 66.1681C16.7089 66.8316 16.8728 67.3181 16.9919 67.6277L16.7536 67.7014C16.6494 67.4213 16.56 67.2296 16.4707 67.1264C16.3813 67.0232 16.2622 66.9495 16.1132 66.9495C15.9643 66.9495 15.7409 66.979 15.458 67.0822L9.6798 68.8514C9.38196 68.9399 9.18836 69.0283 9.06922 69.1168C8.95008 69.2052 8.89051 69.3232 8.87562 69.4559C8.86073 69.6033 8.90541 69.8097 8.97987 70.0898L8.74159 70.1635C8.66713 69.8392 8.5331 69.3674 8.3395 68.7482C8.25015 68.4533 8.13101 68.1142 8.01187 67.7604C7.89273 67.4065 7.80338 67.1559 7.7587 67.0232C7.5651 66.4187 7.50554 65.888 7.55021 65.4162C7.59489 64.9444 7.74381 64.5611 7.98209 64.2515C8.22036 63.9419 8.5331 63.7355 8.9203 63.6175C9.21814 63.5291 9.54577 63.4996 9.90319 63.5438C10.2606 63.588 10.6031 63.7355 10.9605 64.0008C11.3179 64.2662 11.6158 64.6495 11.869 65.1656L11.8541 65.0181C11.8094 64.6495 11.7945 64.3547 11.8541 64.104C11.9136 63.8534 12.0179 63.647 12.1668 63.4701C12.3306 63.2932 12.5689 63.1015 12.8816 62.9246L13.9837 62.2759C14.207 62.1579 14.3857 62.04 14.49 61.9515C14.5942 61.8631 14.6836 61.7746 14.7283 61.6861C14.7729 61.5977 14.7729 61.4945 14.7432 61.3913C14.6985 61.2586 14.6389 61.1701 14.5496 61.1112C14.4602 61.0522 14.3113 60.9785 14.1028 60.9047L14.1773 60.6836C14.4751 60.7868 14.7283 60.9047 14.8921 61.0374ZM11.3328 64.9886C11.0797 64.7528 10.7818 64.6201 10.4691 64.5906C10.1564 64.5611 9.79894 64.6053 9.39685 64.738C8.75648 64.9297 8.32461 65.2393 8.08633 65.6373C7.84806 66.0354 7.84806 66.5809 8.05655 67.2444C8.13101 67.4803 8.22036 67.6572 8.30972 67.7604C8.39907 67.8636 8.5331 67.9226 8.68202 67.9226C8.83095 67.9226 9.05433 67.8783 9.32239 67.8046L12.1817 66.92L11.9434 66.1386C11.7945 65.6079 11.586 65.2245 11.3328 64.9886Z" fill="#FF6D6D"/>
<path d="M13.7456 47.046C14.3115 46.7954 14.654 46.3236 14.8029 45.6159C14.8476 45.3505 14.8476 45.0851 14.7732 44.8345C14.6987 44.5839 14.5647 44.3627 14.3562 44.1711C14.1477 43.9794 13.8647 43.8467 13.4924 43.7877C13.1797 43.7288 12.8967 43.7582 12.6287 43.8614C12.3606 43.9646 12.0926 44.1268 11.8394 44.348C11.5862 44.5691 11.2884 44.864 10.9607 45.2326C10.5884 45.6454 10.2608 45.9845 9.97785 46.2204C9.6949 46.471 9.38216 46.6479 9.03964 46.7806C8.69712 46.9133 8.30992 46.9281 7.87805 46.8543C7.43128 46.7659 7.05898 46.6037 6.79092 46.3383C6.52285 46.0729 6.32926 45.7633 6.2399 45.3947C6.15055 45.0262 6.15055 44.6428 6.22501 44.23C6.26969 43.9794 6.32926 43.7877 6.40372 43.6108C6.47818 43.4339 6.55264 43.3012 6.64199 43.198C6.73135 43.0948 6.8207 42.9768 6.93984 42.8589C7.08876 42.6967 7.16322 42.5788 7.19301 42.4903C7.2079 42.4166 7.17811 42.3576 7.10365 42.2987C7.02919 42.2397 6.89516 42.1954 6.71645 42.1365L6.76113 41.8711C7.22279 41.989 8.02697 42.166 9.20346 42.3871L9.15878 42.6525C8.7418 42.6083 8.3546 42.623 7.9674 42.7115C7.5951 42.7852 7.26747 42.9474 6.99941 43.198C6.73135 43.4339 6.55264 43.773 6.47818 44.1858C6.41861 44.4659 6.4335 44.7166 6.50796 44.9672C6.58242 45.2178 6.71645 45.4095 6.89516 45.5717C7.08876 45.7338 7.31214 45.837 7.5802 45.896C8.01208 45.9697 8.38438 45.9108 8.69712 45.7044C9.00986 45.498 9.3077 45.2326 9.59066 44.923C9.87361 44.6134 10.0523 44.4069 10.1566 44.3037C10.5735 43.8614 10.9161 43.5223 11.199 43.2717C11.482 43.0211 11.7947 42.8442 12.1372 42.7262C12.4798 42.6083 12.8521 42.5935 13.2541 42.6672C13.7456 42.7557 14.1477 42.9474 14.4455 43.2275C14.7434 43.5223 14.937 43.8614 15.0412 44.2743C15.1455 44.6871 15.1455 45.1294 15.0561 45.6012C14.9816 45.9845 14.8923 46.2793 14.7583 46.5152C14.6391 46.7511 14.4753 46.9575 14.2966 47.1492C14.1477 47.3114 14.0732 47.4293 14.0434 47.5178C14.0285 47.5915 14.0583 47.6505 14.1328 47.7094C14.2073 47.7684 14.3413 47.8274 14.52 47.8716L14.4753 48.137C14.0434 48.0191 13.0903 47.8274 11.616 47.562L11.6607 47.2966C12.4946 47.3704 13.1797 47.2966 13.7456 47.046Z" fill="#FF6D6D"/>
<path d="M10.7968 34.6171C10.3799 34.396 9.90331 34.1895 9.36719 33.9831C9.69482 33.4082 10.2458 32.4056 10.9904 30.9755C11.7351 29.5601 12.2563 28.5576 12.5392 27.9531C13.0307 28.2627 13.4774 28.5281 13.8795 28.7345C14.2369 28.9262 14.5497 29.0589 14.788 29.1621L14.6539 29.4127C14.0582 29.1768 13.6115 29.0294 13.2987 28.9852C12.986 28.9262 12.703 28.9852 12.4648 29.1326C12.2265 29.28 11.9882 29.5749 11.7648 30.0172L11.467 30.6069L17.6175 33.7767C17.9153 33.9389 18.1536 34.0126 18.3174 34.0274C18.4812 34.0421 18.6302 33.9979 18.7642 33.8799C18.8982 33.762 19.0471 33.5408 19.2259 33.2312L19.4492 33.3492C19.2259 33.7178 18.9429 34.2338 18.5855 34.912C18.2132 35.6197 17.9451 36.1652 17.7813 36.5043L17.5579 36.3863C17.7068 36.062 17.8111 35.8113 17.826 35.6491C17.8558 35.4722 17.8111 35.3248 17.6919 35.1921C17.5728 35.0594 17.3792 34.9267 17.0814 34.7645L10.9309 31.58L10.6181 32.155C10.3799 32.5973 10.2756 32.9511 10.2905 33.2312C10.3054 33.5114 10.4245 33.762 10.6479 33.9831C10.8713 34.2043 11.2436 34.4992 11.7797 34.8383L11.6457 35.0889C11.4521 34.9709 11.1543 34.8088 10.7968 34.6171Z" fill="#FF6D6D"/>
<path d="M21.3112 17.6771C21.5643 17.4265 21.7728 17.1906 21.9218 17.0137L22.1005 17.1906C22.0111 17.3233 21.9664 17.5149 21.9813 17.7361C21.9962 17.9572 22.0558 18.2669 22.1749 18.6354L23.5301 22.6309L25.1087 24.1789C25.3321 24.3853 25.4959 24.5328 25.6299 24.5917C25.764 24.6507 25.898 24.6507 26.032 24.5917C26.166 24.5328 26.3299 24.4001 26.5532 24.2084L26.732 24.3853C26.449 24.636 26.0767 24.9898 25.615 25.4469C25.1236 25.9334 24.7662 26.3167 24.5428 26.5673L24.3641 26.3904C24.5577 26.1693 24.6917 26.0071 24.7513 25.8744C24.8109 25.7417 24.8109 25.609 24.7364 25.4763C24.6768 25.3436 24.5279 25.1667 24.3194 24.9603L23.0089 23.6777L18.0349 22.2328C17.737 22.1443 17.5137 22.1149 17.3647 22.1296C17.2158 22.1443 17.1116 22.1886 17.0371 22.2623L16.8584 22.0854C17.0967 21.879 17.3647 21.6431 17.6328 21.363C18.1838 20.8027 18.5859 20.4046 18.8093 20.1393L18.988 20.3162C18.5859 20.7142 18.4965 21.0239 18.7199 21.245C18.8093 21.3335 18.9284 21.3924 19.1071 21.4514L23.2918 22.7341L22.1898 19.4758C22.026 19.004 21.8622 18.6797 21.6835 18.5175C21.5197 18.3553 21.341 18.3111 21.1474 18.3701C20.9538 18.429 20.7304 18.5765 20.4623 18.8271L20.2836 18.6502C20.641 18.3258 20.9687 18.0015 21.3112 17.6771Z" fill="#FF6D6D"/>
<path d="M30.3212 11.7352C30.2319 11.8384 30.1872 11.9711 30.217 12.1186C30.2468 12.266 30.3212 12.4724 30.4702 12.7378L33.3444 18.0159C33.4933 18.2813 33.6124 18.4582 33.7316 18.5614C33.8358 18.6646 33.9698 18.6941 34.1039 18.6793C34.2379 18.6646 34.4464 18.5761 34.6996 18.4435L35.4888 18.0159C35.9356 17.78 36.2484 17.5294 36.4122 17.2787C36.576 17.0281 36.6355 16.748 36.5909 16.4089C36.5462 16.0698 36.4122 15.6422 36.1739 15.082L36.4271 14.9493C36.5313 15.1852 36.6802 15.48 36.8738 15.8339C37.0972 16.232 37.3653 16.6743 37.6929 17.1608C37.2015 17.3967 36.3675 17.8242 35.2208 18.4435C33.8507 19.1806 32.8082 19.7409 32.1232 20.1389L32.0041 19.9325C32.2572 19.7851 32.4359 19.6524 32.5253 19.5492C32.6146 19.446 32.6593 19.3133 32.6295 19.1659C32.5998 19.0184 32.5253 18.812 32.3764 18.5467L29.4724 13.2685C29.3235 13.0032 29.2043 12.8262 29.0852 12.723C28.9809 12.6198 28.8469 12.5904 28.7129 12.6051C28.564 12.6198 28.3704 12.6936 28.1023 12.8262L27.998 12.6051C28.3108 12.4724 28.7724 12.2365 29.383 11.8974C29.9638 11.5878 30.4106 11.3372 30.7233 11.1455L30.8425 11.3519C30.5893 11.4993 30.4255 11.632 30.3212 11.7352Z" fill="#FF6D6D"/>
<path d="M48.4595 12.6787C48.5489 13.121 48.6829 13.6223 48.8467 14.1825C48.2957 14.271 47.3873 14.4331 46.1066 14.6838C44.5727 14.9787 43.426 15.2145 42.6367 15.3915L42.592 15.1556C42.875 15.0819 43.0834 15.0229 43.2026 14.9344C43.3217 14.8607 43.3962 14.7428 43.4111 14.6101C43.426 14.4626 43.4111 14.2415 43.3515 13.9466L42.1899 8.06404C42.1303 7.76917 42.0708 7.56276 41.9814 7.43007C41.8921 7.29738 41.8027 7.22367 41.6538 7.20892C41.5198 7.17944 41.2964 7.19418 41.0134 7.23841L40.9688 7.00252C41.758 6.86983 42.9196 6.66342 44.4386 6.36856C45.6151 6.13266 46.4491 5.97049 46.9256 5.85254C46.9703 6.3833 47.0448 6.85508 47.1192 7.2679C47.1788 7.57751 47.2384 7.8134 47.298 7.99032L47.0299 8.04929C46.8661 7.54802 46.7172 7.17944 46.5831 6.94354C46.4491 6.70765 46.2555 6.56022 46.0321 6.4865C45.7938 6.41279 45.4811 6.41278 45.0492 6.50124L44.0514 6.69291C43.7685 6.75188 43.56 6.81085 43.4409 6.88457C43.3217 6.95829 43.2473 7.06149 43.2175 7.20892C43.2026 7.35636 43.2175 7.57751 43.277 7.87237L43.8281 10.6736L44.6173 10.5114C45.0194 10.4377 45.2577 10.2608 45.3471 9.99541C45.4364 9.73003 45.4662 9.4794 45.4513 9.22876C45.4364 8.97812 45.4215 8.81595 45.4215 8.74223L45.6896 8.68326C45.7343 9.08133 45.7938 9.44991 45.8683 9.80375L45.9874 10.364C46.0619 10.7621 46.1959 11.3223 46.3895 12.03L46.1215 12.089C46.1066 12.03 46.047 11.8531 45.9428 11.5287C45.8385 11.2044 45.6896 10.9832 45.4662 10.8505C45.2428 10.7178 44.9897 10.6883 44.662 10.7473L43.8727 10.8948L44.4386 13.7402C44.4982 14.0351 44.5578 14.2415 44.6322 14.3742C44.7067 14.4921 44.8109 14.5658 44.9599 14.5953C45.0939 14.6101 45.3173 14.5953 45.6002 14.5364L46.4789 14.3594C46.9703 14.2562 47.3426 14.1235 47.5809 13.9466C47.8192 13.7697 47.9532 13.5191 48.0128 13.2095C48.0724 12.8998 48.0723 12.4575 48.0277 11.8826L48.2957 11.8236C48.3404 12.0447 48.3851 12.3249 48.4595 12.6787Z" fill="#FF6D6D"/>
<path d="M38.4219 68.9841C37.7369 68.07 37.1412 67.0674 36.62 65.9617C36.0987 64.8559 35.6817 63.7354 35.369 62.5855C34.684 57.5285 34.6691 52.619 35.3094 47.8569C35.9498 43.0948 36.9923 38.4064 38.4219 33.777C38.6602 33.261 39.1814 33.0104 39.9856 33.0104C40.7898 33.0104 41.5791 33.1873 42.3832 33.5411C43.1874 33.895 43.8427 34.3667 44.3639 34.9565C44.8851 35.5462 45.0043 36.1654 44.7213 36.7994C44.2746 37.743 43.8427 39.0256 43.4108 40.6179C42.9789 42.2249 42.5471 43.9941 42.1599 45.9255C41.7578 47.8569 41.4153 49.8915 41.1174 51.9998C40.8196 54.108 40.5962 56.1426 40.4621 58.074C40.3281 60.0054 40.2983 61.7598 40.3728 63.3226C40.4473 64.8854 40.6855 66.1238 41.0876 67.0232C42.964 64.5316 44.6767 61.9515 46.2403 59.2829C47.804 56.6144 49.2635 53.9164 50.6335 51.1594C52.0036 48.4171 53.3142 45.6454 54.5502 42.8294C55.7863 40.0282 57.0074 37.2564 58.1988 34.5289C58.7945 33.143 59.3902 31.6835 59.971 30.1502C60.5518 28.6021 61.3113 27.29 62.2793 26.1842C62.6814 25.8304 62.9941 25.7124 63.2026 25.8304C63.426 25.9483 63.5749 26.1695 63.6494 26.5086C63.7238 26.8477 63.7685 27.2015 63.7685 27.5701C63.7685 27.9387 63.7685 28.2335 63.7685 28.4252C63.4855 30.2386 63.2473 32.0373 63.0537 33.8212C62.8601 35.6052 62.4282 37.3154 61.8027 38.9814C60.7603 41.591 59.7029 44.171 58.6009 46.7511C57.4989 49.3165 56.3224 51.8523 55.0714 54.3439C53.8205 56.8356 52.4504 59.2535 51.0059 61.5976C49.5464 63.9566 47.9678 66.1976 46.2403 68.3206C44.8851 70.0161 43.53 70.9154 42.2045 71.0186C40.8196 71.1366 39.5835 70.4436 38.4219 68.9841Z" fill="#FF6D6D" stroke="white" stroke-miterlimit="10"/>
<path d="M63.0837 62.2909C62.2795 61.1852 61.4902 60.0647 60.7158 58.9147C59.9414 57.7647 59.5542 56.5115 59.5542 55.1257C59.5542 53.5924 60.001 52.1328 60.8945 50.7616C61.788 49.4053 62.8156 48.2995 63.9772 47.4739C64.4537 47.1643 64.9452 46.8989 65.4366 46.7072C65.9281 46.5156 66.4642 46.5303 67.0301 46.7662C67.2684 46.8842 67.5215 46.9726 67.7747 47.0316C68.0279 47.0906 68.2662 47.1643 68.4598 47.238C68.6534 47.3117 68.8767 47.4297 69.115 47.5918C69.3533 47.754 69.4724 47.9604 69.4724 48.2405C69.4724 49.3463 69.5022 50.2456 69.5618 50.9386C69.6214 51.6315 69.7107 52.2212 69.8298 52.7225C69.949 53.2238 70.0681 53.6513 70.1873 54.0199C70.3064 54.4032 70.4255 54.8013 70.5447 55.2289C70.6191 55.6269 70.6042 55.966 70.4851 56.2314C70.366 56.5115 70.0681 56.541 69.5916 56.3494C68.7129 56.0398 68.0577 55.4058 67.6407 54.4475C67.2237 53.4892 66.911 52.634 66.7174 51.8379C66.6727 51.6757 66.5833 51.4104 66.4195 51.0123C66.2557 50.6142 66.1664 50.3341 66.1217 50.1867C65.8089 50.1129 65.4217 50.2161 64.9899 50.511C64.558 50.8059 64.1559 51.2187 63.8283 51.72C63.4858 52.236 63.2624 52.8257 63.173 53.5039C63.0688 54.1821 63.2028 54.8455 63.5602 55.5237C63.724 55.7596 63.9474 56.0545 64.2453 56.3789C64.5431 56.718 64.841 57.057 65.1388 57.4109C65.4366 57.7647 65.7345 58.1186 66.0323 58.4429C66.3302 58.7673 66.5833 59.0474 66.7769 59.2391C67.0152 59.4749 67.179 59.6076 67.2535 59.6224C67.328 59.6371 67.5364 59.5929 67.8492 59.4749C68.2513 59.2833 68.8619 59.0179 69.6809 58.7083C70.5 58.3987 71.3637 58.0743 72.2573 57.7647C73.1508 57.4551 74.0146 57.1897 74.8336 56.9686C75.6527 56.7474 76.2782 56.6442 76.725 56.6442C77.0079 56.6442 77.2015 56.7474 77.3206 56.9391C77.4398 57.057 77.4249 57.2192 77.2611 57.4109C77.0973 57.6025 76.8888 57.809 76.6356 58.0006C76.3824 58.1923 76.0995 58.3692 75.8314 58.5314C75.5485 58.6936 75.3698 58.782 75.2953 58.8262C74.6103 59.2243 73.7614 59.6666 72.7189 60.1679C71.6765 60.6544 70.783 61.1409 70.0234 61.6127C69.949 61.6864 69.8001 61.7749 69.5767 61.8486C69.3533 61.9223 69.1895 62.0108 69.0703 62.0845C69.5469 63.146 69.8894 64.0749 70.083 64.8415C70.2766 65.6082 70.3511 66.3453 70.2915 67.0678C70.2319 67.7754 70.083 68.4979 69.8447 69.235C69.6065 69.9722 69.2788 70.8126 68.8916 71.7561C68.3257 72.6702 67.7598 73.5401 67.179 74.3657C66.5982 75.1913 65.9579 75.9432 65.2281 76.6214C64.5133 77.2996 63.724 77.8304 62.8901 78.2137C62.0561 78.6118 61.1328 78.8034 60.135 78.8034C59.5691 78.8034 59.033 78.7297 58.5117 78.597C57.9905 78.4643 57.5586 78.1695 57.2012 77.7419C56.2779 76.7541 55.7716 75.6779 55.6524 74.5131C55.5333 73.3484 55.6375 72.1984 55.9503 71.0485C56.1886 70.3408 56.4864 69.6921 56.8438 69.0876C57.7225 67.5838 58.6905 66.3158 59.7478 65.2691C60.82 64.237 61.9221 63.2345 63.0837 62.2909ZM65.1239 64.9595C64.6771 65.4018 64.0814 66.021 63.3219 66.8319C62.5624 67.6427 61.8625 68.5273 61.1923 69.4709C60.5371 70.4145 60.001 71.3581 59.584 72.2869C59.167 73.2157 59.0628 74.0119 59.2564 74.6901C60.0605 74.3362 60.8796 73.7465 61.7136 72.9356C62.5475 72.1247 63.2922 71.2401 63.9325 70.2671C64.5729 69.294 65.0197 68.3357 65.2728 67.3921C65.526 66.4338 65.4813 65.6229 65.1239 64.9595Z" fill="#FF6D6D" stroke="white" stroke-miterlimit="10"/>
<path d="M53.3735 86.2929C34.7433 86.2929 19.583 71.2842 19.583 52.8403C19.583 34.3964 34.7433 19.3877 53.3735 19.3877C72.0037 19.3877 87.164 34.3964 87.164 52.8403C87.164 71.2842 72.0037 86.2929 53.3735 86.2929ZM53.3735 20.862C35.5624 20.862 21.0722 35.2073 21.0722 52.8403C21.0722 70.4733 35.5624 84.8185 53.3735 84.8185C71.1846 84.8185 85.6748 70.4733 85.6748 52.8403C85.6748 35.2073 71.1846 20.862 53.3735 20.862Z" fill="#FF6D6D"/>
</g>
</svg>
